<svg width="40" height="40" viewBox="0 0 40 40" fill="none" xmlns="http://www.w3.org/2000/svg">
    <path d="M27.5007 5C32.5633 5 36.6673 9.16667 36.6673 15C36.6673 26.6667 24.1673 33.3333 20.0007 35.8333C15.834 33.3333 3.33398 26.6667 3.33398 15C3.33398 9.16667 7.50065 5 12.5007 5C15.6006 5 18.334 6.66667 20.0007 8.33333C21.6673 6.66667 24.4007 5 27.5007 5ZM21.5571 31.0063C23.0265 30.0808 24.3507 29.1592 25.5922 28.1715C30.5568 24.2217 33.334 19.9058 33.334 15C33.334 11.0679 30.7723 8.33333 27.5007 8.33333C25.7075 8.33333 23.7661 9.28185 22.3577 10.6904L20.0007 13.0474L17.6437 10.6904C16.2351 9.28185 14.2938 8.33333 12.5007 8.33333C9.26575 8.33333 6.66732 11.0942 6.66732 15C6.66732 19.9058 9.44443 24.2217 14.4092 28.1715C15.6507 29.1592 16.9748 30.0808 18.4442 31.0063C18.9417 31.3198 19.4358 31.6215 20.0007 31.9587C20.5655 31.6215 21.0597 31.3198 21.5571 31.0063Z" fill="white"/>
</svg>
